<?xml version="1.0" encoding="UTF-8"?>
<svg id="Camada_1" xmlns="http://www.w3.org/2000/svg" viewBox="0 0 75.51 72.16">
  <path d="M58.01,48.01c6.16.12,11.71.23,17.17.34,1.57,10.91-8.49,22.52-20.5,23.43-7.94.6-15.96.29-23.94.29-10.03,0-20.06-.11-30.53-.17-.06-3.36-.16-6.35-.16-9.33,0-11.02-.17-22.04.12-33.05C.61,13.26,13.2.8,29.87.43c.06,6.75.13,13.5.2,21.49,2.34-2.23,3.8-3.57,5.21-4.97,3.14-3.09,6.65-5.91,9.3-9.38C49.33,1.36,55.28-.71,62.85.21c4.07.49,8.23.14,12.3.17,1.9,8.38-3.85,16.53-17.17,23.72,6.4.1,11.77.18,17.08.27,2.02,8.33-3.81,16.49-17.05,23.65ZM29.95,44.81c.33.15.66.31,1,.46,6.72-6.71,13.45-13.42,20.17-20.13-.17-.33-.33-.66-.5-.98-6.75.03-13.49.05-20.61.08-.02,7.24-.04,13.91-.06,20.58ZM29.97,48.18c-.02,7.23-.03,13.85-.05,20.47.34.16.68.32,1.02.48,6.75-6.74,13.5-13.48,21.06-21.03-8.03.03-14.71.06-22.03.09Z"/>
</svg>