<?xml version="1.0" encoding="UTF-8"?>
<svg id="Camada_1" xmlns="http://www.w3.org/2000/svg" viewBox="0 0 1792.73 554.12">
  <path d="M1790.49,10.96c-.27-.53-5.37-11.04-13.43-10.96-7.04.07-12.39,6.09-16.66,11.69-27.49,36.05-50.4,75.35-72.87,114.73-53.69,94.09-105.32,189.36-154.83,285.71-11.77-74.03-4.02-149.54-1.13-224.45.42-10.82.66-22.07-3.69-31.99-4.35-9.92-14.67-18.09-25.36-16.36-10.47,1.69-17.3,11.6-22.82,20.65-53.55,87.7-85.52,158.9-156.46,297.22-5.08,9.91-9.63,20.13-13.81,30.45-6.12,15.11-15.93,33.59-13.1,50.44,1.28,7.62,6.87,15.11,14.55,15.96,7.92.88,14.99-5.39,18.82-12.38,6.67-12.16,11.3-25.53,17.93-37.84,10.13-18.83,20.6-37.48,31.09-56.11,13.61-24.15,27.35-48.24,41.14-72.29,8.82-15.39,17.66-30.76,26.52-46.13,5.07-8.8,10.15-17.59,15.23-26.39,3.34-5.79,15.83-20.54,15.58-26.93.95,23.87,1.9,47.73,2.84,71.6.79,19.8,1.6,39.81,6.88,58.92,5.27,19.1,15.48,37.51,31.69,48.91,6.24,4.39,13.49,7.72,21.12,7.96,21.05.65,35.17-20.7,44.95-39.36,18.08-27.12,31.15-59.42,46.3-88.31,16.43-31.34,32.86-62.67,49.28-94.01,30.98-59.09,55.11-122.35,93.25-177.09,6.66-9.56,25.7-36.16,16.99-53.62Z"/>
  <path d="M667.17,418.23c4.36-4.51,9.46-8.51,12.96-13.61,25.79-37.62,51.88-75.05,76.65-113.34,26.87-41.54,52.33-83.98,78.63-125.89,3.42-5.46,7.82-10.45,12.42-14.98,5.58-5.49,10.73-5.29,18.26-.5,7.11,4.52,9.73,9.94,7.09,17.02-4.04,10.84-7.96,21.83-13.22,32.09-22.32,43.53-46.76,85.95-72.42,127.59-15.55,25.24-29.47,51.47-45.81,76.23-12.89,19.53-29.96,50.19-55.69,53.38-3.51.44-7.27.39-10.71-.36-15.74-3.42-30.27-9.75-43.42-19.13-17.49-12.49-26.81-29.3-24.32-50.9,2.29-19.82,6.2-39.45,9.39-59.16.22-1.34.43-2.69.99-6.24-9.27,7.57-17.12,13.81-24.79,20.26-35.67,29.97-71.86,59.36-106.75,90.22-26.17,23.15-51.03,47.83-75.75,72.56-19.93,19.93-27.14,21.88-52.62,10.04-12.66-5.88-24.38-12.79-31.18-25.8-4.08-7.8-5.45-15.76-3.44-24.46,1.89-8.19,2.75-16.63,4.85-24.75,4.56-17.66,9.04-35.38,14.57-52.75,25.54-80.08,65.31-152.98,113.79-221.22,12.82-18.05,27.98-34.45,42.33-51.38,3.39-4,7.56-7.52,11.88-10.53,11.42-7.95,26.36-5.76,34.83,5.32,1.59,2.09,1.93,6.59.81,9.04-4.13,8.97-8.9,17.66-13.82,26.23-25.32,44.18-51.6,87.83-75.94,132.55-25.41,46.69-45.07,96.1-63.47,145.92-6.07,16.43-10.35,33.52-15.36,50.33-.5,1.68-.37,3.54-.66,6.78,9.27-7.97,17.39-15.03,25.6-21.99,52.08-44.19,103.77-88.83,156.52-132.2,14.34-11.79,31.65-20.12,48.09-29.14,4.03-2.21,10.03-.67,15.08-1.27,2.18-.26,5.18-.97,6.19-2.53,7.59-11.72,14.61-23.8,22.11-35.58,18.39-28.85,41.27-53.44,69.82-72.48,14.92-9.95,29.39-9.1,42.1,1.34,5.33,4.37,6.16,8.42,2.12,13.98-10.07,13.87-19.84,27.95-29.91,41.81-27.14,37.37-49.5,77.25-61.76,122.03-4.25,15.51-6.16,31.66-8.93,47.55-.37,2.14.45,4.48.72,6.73.72.39,1.44.79,2.16,1.18Z"/>
  <path d="M1120.03,383.97c-.02-6.52.63-13.09,1.68-19.52,8.97-55.21,45.61-102.98,90.51-136.33,5.48-4.07,11.28-8.17,14.6-14.14,4.6-8.27,3.54-18.36,4.02-27.82,1.75-34.66,28.07-66.32,61.5-75.64,33.43-9.32,71.6,3.54,93.62,30.37,27.28,33.23,28.54,81.62,16.05,122.76-13.78,45.36-39.88,92.23-68.86,129.49-24.72,31.77-57.86,72.88-100.12,79.94-23.4,3.91-46.96-6.06-66.96-18.81-18.16-11.58-35.48-26.69-42.42-47.08-2.54-7.47-3.57-15.31-3.6-23.21ZM1323.15,262.65c-11.44,10.21-29.32,4.42-43.31-1.86-22.51-10.11-27.84,2.37-43.1,19.23-14.92,16.49-29.32,33.55-40.66,52.76-16.6,28.12-27.01,60.93-23.42,93.39.35,3.13.96,6.52,3.31,8.63,3.33,2.99,8.51,2.07,12.78.72,45.42-14.34,76.82-54.91,103.98-94.04,34.95-50.35,69.32-107.41,63.25-168.4-1.25-12.61-3.61-27.26,5.26-36.31-28.59,3.54-54.86,22.29-67.49,48.19,10.05,5.41,20.11,10.82,30.16,16.24-14.62,11.52-28.53,23.94-41.64,37.15,15.9,3,30.64,11.77,40.88,24.3Z"/>
  <path d="M1032.16,182.68c.11-.23.21-.47.32-.7-54.43,9.72-105.44,37.67-142.93,78.3,25.93-5.76,52.23-11.56,78.77-10.44,26.54,1.12,53.82,9.98,71.86,29.48,5.8,6.27,10.66,13.84,11.79,22.31,1.07,7.98-1.25,16.05-4.52,23.4-7.75,17.44-20.71,32.01-34.22,45.48-75.37,75.1-175.35,125.09-280.66,140.31-28.85,4.17-58.59,5.76-86.89-1.2-6.96-1.71-40.78-12.03-39.03-22.8s42.97-7.77,50.98-8.12c104.86-4.58,207.92-43.83,289.26-110.17,26.94-21.97,52.43-48.25,62.45-81.54,1.09-3.62,1.89-7.85-.32-10.91-2.86-3.96-8.79-3.55-13.58-2.62-25.76,4.96-51.23,12.59-77.45,13.26s-54.29-6.85-71.06-27.02c-2.84-3.41-5.37-7.31-5.91-11.71-1.05-8.53,5.47-15.97,11.79-21.77,46.33-42.52,109.22-66.48,172.1-65.58,5.94.09,12.16.33,17.49-2.29,11.21-5.51,13.98-21.14,24.65-27.62,13.32-8.1,29.96,2.04,42.15,11.76,1.74,1.39,3.62,3.02,3.87,5.24.21,1.89-.85,3.67-1.88,5.27-16.83,26.11-37.09,50.01-60.1,70.88-4.28,3.89-9.92,7.94-15.35,5.93-4.56-1.68-6.64-6.92-7.59-11.69-2.36-11.84-.92-24.41,4.04-35.42Z"/>
  <path d="M121.35,479.64c10.76-10.05,21.04-19.46,31.09-29.1,47.07-45.15,96.11-88.04,147.73-127.89,10.77-8.31,23.56-14.01,35.5-20.77,2.28-1.29,4.89-2.07,7.42-2.85,6.63-2.04,12.42.85,16.13,5.44,1.37,1.69-1.29,7.7-3.36,10.95-10.83,17.03-27.18,28.51-42.12,41.48-35.72,31.01-71.68,61.78-106.54,93.73-18.06,16.55-34.58,34.91-50.71,53.39-12.07,13.83-25.77,18.59-42.45,11.55-11.2-4.73-22.48-10.15-32.17-17.35-12.61-9.36-17.64-22.74-14.93-39,3.67-22,5.98-44.22,9.76-66.2,1.54-8.95,5.45-17.49,8.24-26.23,25.08-78.46,62.33-150.57,113.09-215.51,8.59-10.99,18.56-20.97,28.4-30.92,11.04-11.18,33.75-10.07,43.38,2.18,1.41,1.8.31,6.82-1.19,9.47-46.1,81.34-93.49,161.57-123.33,251.6-2.65,8-6.86,15.69-8.16,23.88-2.75,17.33-10.15,33.17-14.27,49.99-1.61,6.59-1,13.73-1.5,22.17Z"/>
  <path d="M1026.69,427.72c.05-2.46.25-4.9.53-7.23,3.56-29.15,12.38-57.4,22.57-84.94,19.06-51.5,43.11-101.16,71.67-148.06,10.52-17.28,27.33-55.94,45.38-65.57,13.91-7.42,40.61,7.63,42.87,22.95,1.32,8.93-3.82,17.39-8.66,25-50.82,79.82-92.97,165.16-125.48,254.03-3.11,8.52-6.3,17.33-12.5,23.94s-16.32,10.48-24.56,6.69c-9.52-4.38-12.06-15.83-11.82-26.81Z"/>
  <path d="M38.06,457.43c-4.96,1.63-11.35.05-19.37-6.53-8.62-7.07-13.09-18.04-15.56-28.92-4.33-19.03-3.55-38.86-1.39-58.26,7.53-67.75,31.77-133.57,69.99-190.02,2.12-3.13,4.49-6.4,8.01-7.78,3.68-1.44,7.83-.5,11.62.6,9.85,2.85,19.42,6.66,28.53,11.36,2.38,1.23,4.81,2.59,6.31,4.81,3.49,5.18.4,12.1-2.62,17.57-26.09,47.21-45.67,97.99-58.19,150.46-6.26,26.23-10.75,52.88-13.41,79.72-1.22,12.33-5.53,24.23-13.92,26.98Z"/>
</svg>